<svg xmlns="http://www.w3.org/2000/svg" viewBox="0 0 64 64" width="64" height="64">
  <defs>
    <linearGradient id="fKeycap" x1="0" y1="0" x2="0" y2="1">
      <stop offset="0%" stop-color="#a78bfa"/>
      <stop offset="100%" stop-color="#7c3aed"/>
    </linearGradient>
    <linearGradient id="fSide" x1="0" y1="0" x2="0" y2="1">
      <stop offset="0%" stop-color="#6d28d9"/>
      <stop offset="100%" stop-color="#4c1d95"/>
    </linearGradient>
    <linearGradient id="fStem" x1="0" y1="0" x2="0" y2="1">
      <stop offset="0%" stop-color="#f5deb3"/>
      <stop offset="100%" stop-color="#d4a574"/>
    </linearGradient>
    <linearGradient id="fHousing" x1="0" y1="0" x2="0" y2="1">
      <stop offset="0%" stop-color="#581c87"/>
      <stop offset="100%" stop-color="#3b0764"/>
    </linearGradient>
  </defs>

  <!-- Housing -->
  <rect x="14" y="42" width="36" height="14" rx="4" fill="url(#fHousing)"/>

  <!-- Spring coils -->
  <g fill="none" stroke="#d4a574" stroke-width="1.5" stroke-linecap="round">
    <path d="M 26 41 Q 32 38 38 41"/>
    <path d="M 27 37 Q 32 34 37 37"/>
    <path d="M 28 33 Q 32 30 36 33"/>
  </g>

  <!-- Stem -->
  <rect x="29" y="18" width="6" height="14" rx="2" fill="url(#fStem)"/>

  <!-- Keycap side -->
  <path d="M 16 24 L 16 19 Q 16 15 20 15 L 44 15 Q 48 15 48 19 L 48 24 Q 48 26 46 26 L 18 26 Q 16 26 16 24 Z" fill="url(#fSide)"/>

  <!-- Keycap top -->
  <rect x="18" y="8" width="28" height="10" rx="3" fill="url(#fKeycap)"/>

  <!-- K legend -->
  <g stroke="#ede8f5" stroke-width="1.4" stroke-linecap="round" fill="none" opacity="0.5">
    <line x1="29" y1="10.5" x2="29" y2="15.5"/>
    <line x1="29" y1="13" x2="35" y2="10.5"/>
    <line x1="29" y1="13" x2="34.5" y2="15.5"/>
  </g>
</svg>
