<svg xmlns="http://www.w3.org/2000/svg" viewBox="0 0 64 64" width="64" height="64">
  <defs>
    <linearGradient id="fTop" x1="0" y1="0" x2="0" y2="1">
      <stop offset="0%" stop-color="#a78bfa"/>
      <stop offset="100%" stop-color="#7c3aed"/>
    </linearGradient>
    <linearGradient id="fFront" x1="0" y1="0" x2="0" y2="1">
      <stop offset="0%" stop-color="#6d28d9"/>
      <stop offset="100%" stop-color="#4c1d95"/>
    </linearGradient>
    <linearGradient id="fStem" x1="0" y1="0" x2="0" y2="1">
      <stop offset="0%" stop-color="#f5deb3"/>
      <stop offset="100%" stop-color="#d4a574"/>
    </linearGradient>
    <linearGradient id="fBody" x1="0" y1="0" x2="0" y2="1">
      <stop offset="0%" stop-color="#581c87"/>
      <stop offset="100%" stop-color="#3b0764"/>
    </linearGradient>
  </defs>

  <!-- Switch housing -->
  <rect x="10" y="36" width="44" height="22" rx="5" fill="url(#fBody)"/>
  <!-- Housing stem slot -->
  <rect x="28" y="36" width="8" height="4" rx="1" fill="#2e0854"/>

  <!-- MX stem cross (gold) -->
  <rect x="30" y="27" width="4" height="9" rx="1" fill="url(#fStem)"/>
  <rect x="26" y="30" width="12" height="3" rx="1" fill="url(#fStem)"/>

  <!-- Keycap front face (wider than top for 3D ledge) -->
  <path d="M 6 18 L 6 24 Q 6 27 10 27 L 54 27 Q 58 27 58 24 L 58 18 Z" fill="url(#fFront)"/>

  <!-- Keycap top face -->
  <rect x="8" y="5" width="48" height="14" rx="4" fill="url(#fTop)"/>

  <!-- K legend (centered) -->
  <g stroke="#ede8f5" stroke-width="1.8" stroke-linecap="round" fill="none" opacity="0.55">
    <line x1="29" y1="8" x2="29" y2="16"/>
    <line x1="29" y1="12" x2="36" y2="8"/>
    <line x1="29" y1="12" x2="36" y2="16"/>
  </g>
</svg>
