<svg xmlns="http://www.w3.org/2000/svg" viewBox="0 0 32 32" width="32" height="32">
  <defs>
    <linearGradient id="hg" x1="0" y1="0" x2="0" y2="1">
      <stop offset="0%" stop-color="#7c3aed"/>
      <stop offset="100%" stop-color="#581c87"/>
    </linearGradient>
    <linearGradient id="sg" x1="0" y1="0" x2="0" y2="1">
      <stop offset="0%" stop-color="#f5deb3"/>
      <stop offset="100%" stop-color="#c9975c"/>
    </linearGradient>
    <mask id="cm">
      <rect width="32" height="32" fill="white"/>
      <circle cx="20.2" cy="5" r="3" fill="black"/>
    </mask>
  </defs>
  <!-- Housing -->
  <rect x="4" y="15" width="24" height="14" rx="3.5" fill="url(#hg)"/>
  <!-- Stem (hat shape) -->
  <path d="M 12.5 16.5 L 12.5 11 Q 12.5 8.5 16 3.5 Q 19.5 8.5 19.5 11 L 19.5 16.5 Z" fill="url(#sg)"/>
  <!-- MX cross -->
  <rect x="15" y="10.5" width="2" height="5.5" rx="0.5" fill="#7c3aed"/>
  <rect x="13.5" y="12" width="5" height="2" rx="0.5" fill="#7c3aed"/>
  <!-- Crescent -->
  <circle cx="19.5" cy="5.5" r="3.2" fill="#d4a574" mask="url(#cm)"/>
  <!-- Star -->
  <circle cx="23" cy="4" r="0.8" fill="#f5deb3" opacity="0.9"/>
  <!-- Pins -->
  <rect x="10" y="29" width="1.5" height="3" rx="0.75" fill="#d4a574"/>
  <rect x="15.25" y="29" width="1.5" height="3.5" rx="0.75" fill="#d4a574"/>
  <rect x="20.5" y="29" width="1.5" height="3" rx="0.75" fill="#d4a574"/>
</svg>
