<svg xmlns="http://www.w3.org/2000/svg" viewBox="0 0 512 512" width="512" height="512">
  <defs>
    <linearGradient id="keycapTop" x1="0" y1="0" x2="0" y2="1">
      <stop offset="0%" stop-color="#a78bfa"/>
      <stop offset="100%" stop-color="#7c3aed"/>
    </linearGradient>
    <linearGradient id="keycapSide" x1="0" y1="0" x2="0" y2="1">
      <stop offset="0%" stop-color="#6d28d9"/>
      <stop offset="100%" stop-color="#4c1d95"/>
    </linearGradient>
    <linearGradient id="stemGrad" x1="0" y1="0" x2="0" y2="1">
      <stop offset="0%" stop-color="#f5deb3"/>
      <stop offset="100%" stop-color="#d4a574"/>
    </linearGradient>
    <linearGradient id="springGrad" x1="0" y1="0" x2="0" y2="1">
      <stop offset="0%" stop-color="#d4a574"/>
      <stop offset="100%" stop-color="#b8860b"/>
    </linearGradient>
    <linearGradient id="housingGrad" x1="0" y1="0" x2="0" y2="1">
      <stop offset="0%" stop-color="#581c87"/>
      <stop offset="100%" stop-color="#3b0764"/>
    </linearGradient>
  </defs>

  <!-- Switch housing -->
  <rect x="80" y="288" width="352" height="176" rx="20" fill="url(#housingGrad)"/>
  <!-- Housing top lip -->
  <rect x="80" y="288" width="352" height="22" rx="11" fill="#6d28d9" opacity="0.3"/>
  <!-- Housing stem slot -->
  <rect x="224" y="288" width="64" height="20" rx="6" fill="#2e0854"/>
  <!-- Housing detail lines -->
  <rect x="112" y="386" width="288" height="6" rx="3" fill="#4c1d95" opacity="0.4"/>
  <rect x="112" y="418" width="288" height="6" rx="3" fill="#4c1d95" opacity="0.25"/>
  <!-- Contact leaves (subtle gold inside housing) -->
  <path d="M 190 350 L 190 316 Q 190 306 202 306" fill="none" stroke="#d4a574" stroke-width="5" stroke-linecap="round" opacity="0.4"/>
  <path d="M 322 350 L 322 316 Q 322 306 310 306" fill="none" stroke="#d4a574" stroke-width="5" stroke-linecap="round" opacity="0.4"/>

  <!-- Spring coils (compact, gold) -->
  <g fill="none" stroke="url(#springGrad)" stroke-width="6" stroke-linecap="round">
    <path d="M 196 284 Q 256 270 316 284"/>
    <path d="M 204 266 Q 256 252 308 266"/>
    <path d="M 212 248 Q 256 234 300 248"/>
  </g>

  <!-- MX stem cross (gold) -->
  <rect x="246" y="212" width="20" height="80" rx="4" fill="url(#stemGrad)"/>
  <rect x="230" y="218" width="52" height="16" rx="5" fill="url(#stemGrad)"/>

  <!-- Keycap front face (3D ledge, wider than top) -->
  <path d="M 48 144 L 48 192 Q 48 216 72 216 L 440 216 Q 464 216 464 192 L 464 144 Z" fill="url(#keycapSide)"/>

  <!-- Keycap top face -->
  <rect x="64" y="40" width="384" height="108" rx="20" fill="url(#keycapTop)"/>
  <!-- Surface highlight -->
  <rect x="92" y="52" width="328" height="14" rx="7" fill="#c4b5fd" opacity="0.28"/>

  <!-- K legend (centered) -->
  <g opacity="0.55">
    <rect x="234" y="66" width="9" height="60" rx="3" fill="#ede8f5"/>
    <line x1="243" y1="96" x2="278" y2="66" stroke="#ede8f5" stroke-width="9" stroke-linecap="round"/>
    <line x1="243" y1="96" x2="276" y2="126" stroke="#ede8f5" stroke-width="9" stroke-linecap="round"/>
  </g>
</svg>
