<svg xmlns="http://www.w3.org/2000/svg" width="960" height="260" viewBox="0 0 960 260" fill="none">
  <defs>
    <linearGradient id="iconGrad" x1="36" y1="44" x2="188" y2="196" gradientUnits="userSpaceOnUse">
      <stop stop-color="#6D28D9"/>
      <stop offset="1" stop-color="#8B5CF6"/>
    </linearGradient>
    <linearGradient id="ruleGrad" x1="228" y1="214" x2="760" y2="214" gradientUnits="userSpaceOnUse">
      <stop stop-color="#8B5CF6"/>
      <stop offset="1" stop-color="#C4B5FD" stop-opacity="0"/>
    </linearGradient>
  </defs>

  <rect x="36" y="44" width="152" height="152" rx="36" fill="url(#iconGrad)"/>
  <rect x="66" y="68" width="92" height="38" rx="14" fill="#F8FAFC"/>
  <rect x="90" y="109" width="44" height="20" rx="8" fill="#EDE9FE"/>
  <rect x="57" y="127" width="110" height="49" rx="17" fill="#23123F"/>
  <rect x="74" y="139" width="76" height="10" rx="5" fill="#3B1D68"/>
  <rect x="83" y="181" width="6" height="11" rx="3" fill="#DDD6FE"/>
  <rect x="109" y="181" width="6" height="15" rx="3" fill="#DDD6FE"/>
  <rect x="135" y="181" width="6" height="11" rx="3" fill="#DDD6FE"/>

  <text x="228" y="96" fill="#7C3AED" font-family="Segoe UI, Helvetica, Arial, sans-serif" font-size="30" font-weight="700" letter-spacing="0.22em">THEKEYSWITCH.COM</text>
  <text x="228" y="156" fill="#18181B" font-family="Segoe UI, Helvetica, Arial, sans-serif" font-size="68" font-weight="800">The Key Switch</text>
  <text x="228" y="194" fill="#52525B" font-family="Segoe UI, Helvetica, Arial, sans-serif" font-size="24" font-weight="500">Full-stack portfolio, GraphQL API, observability, and keyboard-switch tooling.</text>
  <rect x="228" y="212" width="540" height="3" rx="1.5" fill="url(#ruleGrad)"/>
</svg>
